<svg width="100" height="100" viewBox="0 0 100 100" fill="none" xmlns="http://www.w3.org/2000/svg">
<path d="M83.5906 77.9062C88.0785 72.5066 91.1999 66.1054 92.6907 59.2443C94.1815 52.3832 93.9978 45.2639 92.1553 38.4888C90.3127 31.7137 86.8655 25.482 82.1052 20.3209C77.3449 15.1598 71.4115 11.2211 64.8071 8.83807C58.2026 6.45504 51.1214 5.69774 44.1624 6.63024C37.2034 7.56274 30.5713 10.1576 24.8272 14.1953C19.0832 18.233 14.3961 23.5948 11.1625 29.8271C7.92887 36.0594 6.24387 42.9788 6.25002 50C6.25238 60.2068 9.84922 70.0868 16.4094 77.9062L16.3469 77.9594C16.5656 78.2219 16.8156 78.4469 17.0406 78.7062C17.3219 79.0281 17.625 79.3312 17.9156 79.6437C18.7906 80.5937 19.6906 81.5062 20.6344 82.3625C20.9219 82.625 21.2188 82.8687 21.5094 83.1187C22.5094 83.9812 23.5375 84.8 24.6031 85.5625C24.7406 85.6562 24.8656 85.7781 25.0031 85.875V85.8375C32.3222 90.988 41.0535 93.7522 50.0031 93.7522C58.9528 93.7522 67.6841 90.988 75.0031 85.8375V85.875C75.1406 85.7781 75.2625 85.6562 75.4031 85.5625C76.4656 84.7969 77.4969 83.9812 78.4969 83.1187C78.7875 82.8687 79.0844 82.6219 79.3719 82.3625C80.3156 81.5031 81.2156 80.5937 82.0906 79.6437C82.3813 79.3312 82.6813 79.0281 82.9656 78.7062C83.1875 78.4469 83.4406 78.2219 83.6594 77.9562L83.5906 77.9062ZM50 25C52.7813 25 55.5002 25.8247 57.8127 27.37C60.1253 28.9152 61.9277 31.1114 62.9921 33.681C64.0564 36.2506 64.3349 39.0781 63.7923 41.806C63.2497 44.5338 61.9104 47.0395 59.9437 49.0062C57.977 50.9729 55.4713 52.3122 52.7435 52.8548C50.0156 53.3974 47.1881 53.1189 44.6185 52.0546C42.0489 50.9902 39.8527 49.1878 38.3075 46.8752C36.7623 44.5626 35.9375 41.8438 35.9375 39.0625C35.9375 35.3329 37.4191 31.756 40.0563 29.1188C42.6936 26.4816 46.2704 25 50 25ZM25.0219 77.9062C25.0761 73.803 26.7436 69.8861 29.6636 67.0029C32.5837 64.1197 36.5214 62.5021 40.625 62.5H59.375C63.4786 62.5021 67.4164 64.1197 70.3364 67.0029C73.2564 69.8861 74.9239 73.803 74.9781 77.9062C68.1245 84.0823 59.2258 87.5002 50 87.5002C40.7742 87.5002 31.8755 84.0823 25.0219 77.9062Z" fill="white"/>
</svg>
