<svg width="24" height="24" viewBox="0 0 24 24" fill="none" xmlns="http://www.w3.org/2000/svg">
<path d="M0 2.25C0 2.05109 0.0842881 1.86032 0.234322 1.71967C0.384356 1.57902 0.587845 1.5 0.800025 1.5H3.2001C3.37855 1.50005 3.55187 1.55603 3.69248 1.65904C3.8331 1.76205 3.93294 1.90618 3.97612 2.0685L4.62414 4.5H23.2007C23.3182 4.5001 23.4342 4.52445 23.5405 4.57133C23.6468 4.6182 23.7408 4.68644 23.8158 4.77121C23.8908 4.85597 23.9449 4.95518 23.9744 5.06178C24.0039 5.16838 24.008 5.27976 23.9863 5.388L21.5863 17.388C21.5519 17.5599 21.4547 17.7151 21.3112 17.8268C21.1678 17.9386 20.9872 17.9998 20.8006 18H6.4002C6.21368 17.9998 6.03309 17.9386 5.88964 17.8268C5.74619 17.7151 5.64889 17.5599 5.61457 17.388L3.2161 5.4105L2.57608 3H0.800025C0.587845 3 0.384356 2.92098 0.234322 2.78033C0.0842881 2.63968 0 2.44891 0 2.25ZM4.96335 6L7.06422 16.5H20.1366L22.2375 6H4.96335ZM8.00025 18C7.15153 18 6.33757 18.3161 5.73744 18.8787C5.1373 19.4413 4.80015 20.2044 4.80015 21C4.80015 21.7956 5.1373 22.5587 5.73744 23.1213C6.33757 23.6839 7.15153 24 8.00025 24C8.84897 24 9.66292 23.6839 10.2631 23.1213C10.8632 22.5587 11.2003 21.7956 11.2003 21C11.2003 20.2044 10.8632 19.4413 10.2631 18.8787C9.66292 18.3161 8.84897 18 8.00025 18ZM19.2006 18C18.3519 18 17.5379 18.3161 16.9378 18.8787C16.3376 19.4413 16.0005 20.2044 16.0005 21C16.0005 21.7956 16.3376 22.5587 16.9378 23.1213C17.5379 23.6839 18.3519 24 19.2006 24C20.0493 24 20.8633 23.6839 21.4634 23.1213C22.0635 22.5587 22.4007 21.7956 22.4007 21C22.4007 20.2044 22.0635 19.4413 21.4634 18.8787C20.8633 18.3161 20.0493 18 19.2006 18ZM8.00025 19.5C8.42461 19.5 8.83159 19.658 9.13165 19.9393C9.43172 20.2206 9.6003 20.6022 9.6003 21C9.6003 21.3978 9.43172 21.7794 9.13165 22.0607C8.83159 22.342 8.42461 22.5 8.00025 22.5C7.57589 22.5 7.16891 22.342 6.86884 22.0607C6.56877 21.7794 6.4002 21.3978 6.4002 21C6.4002 20.6022 6.56877 20.2206 6.86884 19.9393C7.16891 19.658 7.57589 19.5 8.00025 19.5ZM19.2006 19.5C19.625 19.5 20.0319 19.658 20.332 19.9393C20.6321 20.2206 20.8006 20.6022 20.8006 21C20.8006 21.3978 20.6321 21.7794 20.332 22.0607C20.0319 22.342 19.625 22.5 19.2006 22.5C18.7762 22.5 18.3693 22.342 18.0692 22.0607C17.7691 21.7794 17.6005 21.3978 17.6005 21C17.6005 20.6022 17.7691 20.2206 18.0692 19.9393C18.3693 19.658 18.7762 19.5 19.2006 19.5Z" fill="white"/>
</svg>
