<svg width="53" height="53" viewBox="0 0 53 53" fill="none" xmlns="http://www.w3.org/2000/svg">
<path d="M33.125 30.9167C34.3447 30.9167 35.3334 29.928 35.3334 28.7083C35.3334 27.4887 34.3447 26.5 33.125 26.5C31.9054 26.5 30.9167 27.4887 30.9167 28.7083C30.9167 29.928 31.9054 30.9167 33.125 30.9167Z" fill="white"/>
<path d="M37.5416 26.5C38.7613 26.5 39.75 25.5113 39.75 24.2917C39.75 23.072 38.7613 22.0833 37.5416 22.0833C36.322 22.0833 35.3333 23.072 35.3333 24.2917C35.3333 25.5113 36.322 26.5 37.5416 26.5Z" fill="white"/>
<path d="M22.0833 19.875H17.6667V24.2917H13.25V28.7083H17.6667V33.125H22.0833V28.7083H26.5V24.2917H22.0833V19.875Z" fill="white"/>
<path d="M33.125 11.0417H19.875C15.7752 11.0417 11.8433 12.6703 8.94433 15.5693C6.04533 18.4683 4.41669 22.4002 4.41669 26.5C4.41669 30.5998 6.04533 34.5317 8.94433 37.4307C11.8433 40.3297 15.7752 41.9583 19.875 41.9583H33.125C37.2248 41.9583 41.1567 40.3297 44.0557 37.4307C46.9547 34.5317 48.5834 30.5998 48.5834 26.5C48.5834 22.4002 46.9547 18.4683 44.0557 15.5693C41.1567 12.6703 37.2248 11.0417 33.125 11.0417ZM33.125 37.5417H19.875C16.9466 37.5417 14.1381 36.3783 12.0674 34.3076C9.99667 32.2369 8.83335 29.4284 8.83335 26.5C8.83335 23.5716 9.99667 20.7631 12.0674 18.6924C14.1381 16.6216 16.9466 15.4583 19.875 15.4583H33.125C36.0535 15.4583 38.8619 16.6216 40.9327 18.6924C43.0034 20.7631 44.1667 23.5716 44.1667 26.5C44.1667 29.4284 43.0034 32.2369 40.9327 34.3076C38.8619 36.3783 36.0535 37.5417 33.125 37.5417Z" fill="white"/>
</svg>
