<svg width="29" height="29" viewBox="0 0 29 29" fill="none" xmlns="http://www.w3.org/2000/svg">
<path d="M12.6875 9.0625C12.6875 7.88437 12.9745 6.72398 13.5239 5.68176C14.0732 4.63955 14.8682 3.7469 15.8402 3.08109C16.8121 2.41527 17.9317 1.99635 19.102 1.86058C20.2723 1.72481 21.458 1.87627 22.5566 2.30187C22.6969 2.35643 22.8215 2.4451 22.919 2.55988C23.0165 2.67466 23.0838 2.81192 23.1149 2.95926C23.1461 3.1066 23.14 3.25938 23.0972 3.40378C23.0545 3.54818 22.9764 3.67965 22.8701 3.78631L19.4082 7.25L21.75 9.59356L25.2119 6.13169C25.3184 6.02492 25.4499 5.94643 25.5944 5.90332C25.7389 5.86021 25.8919 5.85385 26.0395 5.8848C26.1871 5.91576 26.3246 5.98307 26.4396 6.08062C26.5546 6.17816 26.6435 6.30287 26.6981 6.44344C27.186 7.70158 27.313 9.0709 27.0649 10.3973C26.8168 11.7237 26.2035 12.9546 25.2939 13.9514C24.3844 14.9482 23.2146 15.6713 21.9164 16.0395C20.6182 16.4076 19.243 16.4061 17.9456 16.0352L8.87581 25.23C8.54568 25.5683 8.15213 25.8384 7.71765 26.0246C7.28316 26.2109 6.81625 26.3097 6.34356 26.3155C5.38892 26.3272 4.46873 25.9593 3.78541 25.2925C3.10208 24.6258 2.71161 23.7149 2.69988 22.7603C2.68816 21.8056 3.05614 20.8854 3.72287 20.2021L12.8778 10.7155C12.7513 10.1736 12.6874 9.61897 12.6875 9.0625ZM19.9375 3.625C19.0831 3.62468 18.2406 3.8257 17.4785 4.21177C16.7163 4.59784 16.0558 5.15809 15.5505 5.8471C15.0453 6.53611 14.7095 7.33448 14.5705 8.17749C14.4314 9.0205 14.4929 9.88441 14.7501 10.6992C14.7993 10.8548 14.8056 11.0208 14.7683 11.1797C14.7309 11.3385 14.6514 11.4844 14.5381 11.6018L5.02606 21.46C4.71384 21.8024 4.54682 22.2527 4.56023 22.7159C4.57365 23.1791 4.76645 23.6189 5.09797 23.9427C5.42949 24.2665 5.8738 24.4488 6.33718 24.4512C6.80056 24.4537 7.24677 24.2761 7.58169 23.9558L17.052 14.3622C17.1752 14.2378 17.3319 14.1517 17.503 14.1144C17.6741 14.077 17.8524 14.0901 18.0162 14.152C18.8796 14.4778 19.8116 14.5785 20.7246 14.4447C21.6376 14.3109 22.5015 13.9469 23.235 13.3871C23.9685 12.8273 24.5475 12.09 24.9175 11.2446C25.2874 10.3993 25.4361 9.47368 25.3496 8.555L22.3898 11.5166C22.2199 11.6865 21.9894 11.782 21.7491 11.782C21.5088 11.782 21.2783 11.6865 21.1084 11.5166L17.4834 7.89162C17.3135 7.72168 17.218 7.49121 17.218 7.2509C17.218 7.0106 17.3135 6.78013 17.4834 6.61019L20.445 3.64856C20.2763 3.63292 20.1069 3.62506 19.9375 3.625Z" fill="white"/>
</svg>
